<svg version="1.1" id="Layer_1" xmlns="http://www.w3.org/2000/svg" xmlns:xlink="http://www.w3.org/1999/xlink" x="0px" y="0px"
	 width="100%" viewBox="0 0 684 365" enable-background="new 0 0 684 365" xml:space="preserve">
<path fill="#000000" opacity="1.000000" stroke="none" 
	d="
M457.000000,366.000000 
	C304.702820,366.000000 152.905640,366.000000 1.054232,366.000000 
	C1.054232,244.398483 1.054232,122.796928 1.054232,1.097689 
	C228.880539,1.097689 456.761139,1.097689 684.820862,1.097689 
	C684.820862,122.666451 684.820862,244.333206 684.820862,366.000000 
	C609.130188,366.000000 533.315125,366.000000 457.000000,366.000000 
M267.972595,214.046127 
	C267.972595,214.046127 267.858032,214.025055 268.239471,214.838165 
	C278.880127,214.897263 289.520782,214.973694 300.161438,214.971344 
	C300.784210,214.971207 301.406860,214.334442 302.589172,213.547745 
	C304.973816,208.112869 304.148865,205.528992 298.509186,204.897964 
	C290.692505,204.023315 282.756378,204.090363 274.868835,204.011459 
	C267.763367,203.940384 267.070892,204.796997 266.552856,212.239594 
	C267.018829,212.879913 267.484772,213.520233 267.972595,214.046127 
M181.185150,214.538956 
	C181.729553,214.640945 182.273956,214.742920 183.686539,214.947296 
	C190.196625,215.166687 190.926041,214.513992 191.000015,208.095749 
	C191.080536,201.109741 191.055969,194.122482 191.147644,187.136673 
	C191.261719,178.445175 191.296524,178.502274 199.961060,177.942947 
	C202.898148,177.753372 206.183762,177.854584 206.026886,173.280182 
	C205.877670,168.928864 203.812119,166.919449 199.504715,166.978424 
	C195.511276,167.033112 191.516403,166.980148 187.522156,166.979065 
	C180.040253,166.977051 179.857758,167.174942 180.004089,175.973282 
	C180.000671,187.173218 179.960373,198.373413 180.037598,209.572784 
	C180.047974,211.079391 180.650452,212.581894 180.980530,214.019958 
	C180.980530,214.019958 180.915070,214.030930 181.185150,214.538956 
M565.745422,186.654953 
	C563.726013,195.239349 564.276489,196.002350 572.509338,196.004288 
	C578.643860,196.005737 584.783997,196.150101 590.910095,195.921951 
	C593.187439,195.837128 597.237305,195.121948 597.355347,194.264374 
	C597.718994,191.621155 596.575012,188.770493 595.603699,185.229126 
	C588.785400,185.154724 581.966064,184.982422 575.149170,185.050812 
	C572.129700,185.081085 569.115112,185.598343 565.745422,186.654953 
M267.468903,186.950714 
	C264.660095,193.895508 265.873047,195.964188 272.846619,195.995728 
	C279.830292,196.027313 286.821686,196.178436 293.793793,195.891373 
	C296.034546,195.799118 299.714417,194.929016 300.107269,193.623703 
	C300.784912,191.371811 299.404755,188.500656 298.457245,185.158737 
	C289.253418,185.106003 280.049255,185.007278 270.846161,185.066895 
	C269.852173,185.073334 268.864136,185.997681 267.468903,186.950714 
M413.382721,186.631088 
	C413.263855,187.613754 413.070496,188.593994 413.038147,189.579498 
	C412.829132,195.947937 412.887939,196.000504 419.185516,196.002441 
	C428.088928,196.005188 436.992340,196.003143 445.732574,196.003143 
	C447.719788,189.868469 447.591766,189.237534 443.573730,185.217438 
	C434.829620,185.145447 426.085480,185.035828 417.341492,185.046814 
	C416.186584,185.048264 415.032501,185.664841 413.382721,186.631088 
M566.373230,214.817474 
	C576.584900,214.875214 586.796570,214.950699 597.008240,214.948227 
	C597.645813,214.948074 598.283203,214.337234 599.518005,213.476273 
	C599.965942,209.969193 601.647827,204.737564 596.776489,204.428375 
	C586.346680,203.766342 575.816284,204.689819 564.495117,204.985687 
	C565.131287,208.694031 565.586853,211.349243 566.373230,214.817474 
M598.810059,176.887161 
	C602.183838,170.281357 600.385498,166.993408 593.382141,166.990311 
	C585.607544,166.986862 577.829041,166.871338 570.061646,167.111176 
	C568.423828,167.161743 565.464661,168.536407 565.461243,169.311340 
	C565.449951,171.863297 563.042603,175.248734 567.456848,177.766052 
	C576.471863,177.844070 585.486877,177.959122 594.501892,177.954590 
	C595.665833,177.954010 596.829590,177.334381 598.810059,176.887161 
M447.664337,213.812881 
	C450.774536,207.609406 449.049347,204.213150 442.556610,204.023743 
	C437.769806,203.884079 432.972565,203.855911 428.186707,204.000641 
	C423.198395,204.151505 418.218170,204.569290 412.467804,204.916672 
	C413.021088,208.694778 413.408356,211.339111 414.267151,214.746109 
	C424.669464,214.826950 435.071747,214.920776 445.474182,214.946854 
	C445.949097,214.948029 446.425476,214.338745 447.664337,213.812881 
M446.101654,177.116257 
	C449.779327,177.665466 448.884064,175.114212 449.013062,173.031219 
	C449.243134,169.316345 447.490540,167.189758 443.953522,167.115784 
	C434.842255,166.925201 425.721466,166.899353 416.614258,167.155807 
	C415.399048,167.190033 413.046539,169.695389 413.267822,170.275421 
	C414.109222,172.480911 409.828644,176.047440 415.380096,177.752747 
	C423.482269,177.835449 431.584656,177.981628 439.686432,177.953049 
	C441.546387,177.946503 443.404236,177.339203 446.101654,177.116257 
M302.016571,177.011017 
	C305.707764,171.335052 304.100677,167.280930 297.720551,167.113632 
	C287.660461,166.849854 277.588379,167.043472 267.568726,167.043472 
	C267.226593,169.422989 266.628540,171.535797 266.739838,173.610535 
	C266.802124,174.771454 268.040619,175.869263 269.255798,177.736420 
	C278.733154,177.823914 288.210449,177.947754 297.687866,177.953232 
	C298.882599,177.953934 300.077667,177.332199 302.016571,177.011017 
M501.762268,212.486969 
	C501.825073,198.633881 501.901886,184.780792 501.909668,170.927673 
	C501.910065,170.230942 501.313965,169.533890 500.703796,168.125732 
	C497.807770,167.980011 494.911743,167.834290 491.307587,168.245804 
	C491.213562,172.366272 491.190369,176.489899 491.006439,180.606354 
	C490.804962,185.115540 490.455017,189.618088 489.614349,193.699463 
	C485.938110,188.458893 482.297485,183.192841 478.571289,177.988022 
	C476.563995,175.184189 474.494080,172.415909 472.298187,169.759048 
	C470.192566,167.211365 463.270203,165.671875 462.529083,167.700699 
	C461.610291,170.215881 462.263916,173.552383 463.007660,176.327972 
	C463.403168,177.804031 465.659515,178.677521 466.671844,180.108810 
	C474.006836,190.479172 481.219360,200.936020 488.512695,211.336014 
	C491.382812,215.428680 497.139465,216.099243 501.762268,212.486969 
M92.002342,233.882187 
	C91.069878,236.141785 89.497414,238.796143 93.117691,239.901733 
	C104.711517,243.442352 116.528084,246.037308 128.398102,241.649338 
	C132.770355,240.033051 141.074463,242.696609 139.025421,232.690262 
	C140.054550,235.479599 140.412247,239.182709 141.735306,239.567657 
	C147.856567,241.348572 154.246094,242.207428 161.557510,243.588989 
	C160.798401,240.197372 160.318375,238.052658 159.639816,235.172119 
	C158.408035,229.839066 157.243484,224.489059 155.906845,219.182434 
	C155.458755,217.403427 155.065323,214.932968 153.800293,214.154739 
	C148.313065,210.779053 142.238495,208.486099 135.694763,209.119629 
	C130.716110,209.601624 125.852623,211.170197 120.891342,211.964630 
	C116.160690,212.722153 112.924210,214.487793 113.197983,219.580994 
	C111.679192,217.512634 113.540497,213.198868 108.288521,212.813217 
	C105.381508,211.607117 102.474503,210.401031 99.329124,209.096039 
	C98.927216,209.810806 98.284317,210.571915 98.042679,211.444168 
	C96.043793,218.659927 94.119171,225.896255 92.002342,233.882187 
M137.405075,127.867180 
	C133.075287,127.241867 128.742477,126.636742 124.416260,125.987610 
	C108.925545,123.663330 96.353233,143.255676 100.741241,157.114182 
	C103.108704,164.591293 106.563019,171.777023 110.073250,178.822037 
	C112.657944,184.009506 115.652573,189.148407 119.326210,193.597443 
	C123.728500,198.928940 128.302078,198.966980 132.797867,193.522171 
	C141.158310,183.396927 147.948318,172.307800 151.331375,159.341019 
	C154.924301,145.569794 149.383163,134.227890 137.405075,127.867180 
M215.016541,203.426971 
	C215.118011,206.081009 214.622864,208.965271 215.527435,211.309387 
	C216.146683,212.914124 218.947311,214.950943 220.357895,214.674866 
	C222.421127,214.271027 224.569229,212.264877 225.803864,210.370026 
	C226.644501,209.079834 225.714783,206.758133 226.067688,204.996033 
	C226.471344,202.980682 227.190552,199.549057 228.172394,199.402008 
	C231.317535,198.930984 235.129578,197.510849 237.455322,201.716812 
	C239.534866,205.477570 241.915543,209.086182 244.360687,212.625580 
	C246.129333,215.185669 251.949631,216.050888 254.295792,214.205292 
	C257.808258,211.442276 254.617294,209.106628 253.451523,206.950180 
	C251.545044,203.423553 249.132477,200.170502 246.964508,196.849686 
	C253.843262,191.940536 255.509766,185.912262 254.032455,178.596466 
	C252.579437,171.400986 247.458206,168.291733 241.031586,167.644516 
	C233.625580,166.898666 226.107803,166.991302 218.648819,167.163559 
	C215.210281,167.242981 214.920563,170.214264 214.873306,173.087250 
	C214.820557,176.294174 216.536896,177.030960 219.283630,176.993240 
	C224.275314,176.924667 229.289551,176.715210 234.252686,177.101074 
	C236.743301,177.294708 239.373337,178.304169 241.492798,179.649643 
	C242.696335,180.413681 243.959396,183.068741 243.486740,184.043488 
	C242.691391,185.683624 240.688217,187.406143 238.920029,187.771179 
	C234.899445,188.601212 230.719162,188.747559 226.592865,188.958374 
	C215.013336,189.550034 215.011169,189.507416 215.015991,200.964371 
	C215.016205,201.463638 215.016312,201.962921 215.016541,203.426971 
M323.578888,184.961914 
	C325.187103,184.961914 326.795319,184.961914 329.010498,184.961914 
	C327.936920,186.630615 327.228119,187.891357 326.369751,189.040390 
	C321.346191,195.765106 316.147125,202.364319 311.302155,209.214401 
	C308.989990,212.483490 310.590698,215.485687 314.462097,214.808395 
	C317.731842,214.236343 321.176178,212.443863 323.671143,210.215271 
	C326.886932,207.342804 329.233368,203.497116 332.155060,199.817673 
	C335.730072,204.386902 338.834900,208.447769 342.044647,212.423935 
	C344.077301,214.941956 351.128021,216.259140 352.896912,214.225464 
	C355.960663,210.703140 352.211884,208.566757 350.622620,206.208176 
	C347.772369,201.978287 344.271301,198.151978 341.753052,193.750320 
	C340.726257,191.955566 340.696472,188.616913 341.708496,186.825439 
	C344.047394,182.685120 347.516144,179.199005 350.089905,175.168655 
	C351.370239,173.163773 351.688599,170.544556 352.442139,168.203262 
	C349.457733,168.081757 346.454407,167.727753 343.499542,167.968613 
	C342.504913,168.049683 341.532379,169.560410 340.724121,170.558853 
	C337.963959,173.968475 335.281403,177.440933 332.287659,181.247391 
	C330.472046,178.733551 329.132538,176.723221 327.635590,174.837921 
	C324.244385,170.566925 321.061066,166.087784 314.430817,166.955246 
	C311.418274,167.349380 310.095642,169.316330 311.422028,171.204102 
	C314.829590,176.053848 318.971710,180.387482 323.578888,184.961914 
M364.894623,190.222931 
	C364.599457,196.948822 364.332611,203.676132 363.996521,210.399979 
	C363.841553,213.499878 365.051941,215.067627 368.322540,214.988556 
	C371.268097,214.917358 373.637634,214.381775 373.922241,210.800079 
	C374.193634,207.384399 373.356018,202.413803 375.217712,200.960999 
	C377.567566,199.127243 382.157654,200.146057 385.783020,199.968246 
	C398.902344,199.324783 405.541534,188.569611 400.753265,176.257156 
	C398.948639,171.616714 395.968811,168.791992 391.285187,168.172699 
	C385.899384,167.460556 380.435547,167.141159 374.999054,167.052460 
	C364.913727,166.887909 364.911743,167.009293 363.564667,176.989883 
	C365.063080,176.989883 366.532501,176.929245 367.995514,177.000381 
	C374.275574,177.305756 380.607544,177.285904 386.799744,178.201706 
	C388.657684,178.476501 390.497314,181.201996 391.563110,183.218262 
	C391.926056,183.904877 390.186005,186.376068 388.885223,187.121490 
	C386.568268,188.449203 383.903748,189.660706 381.295349,189.885513 
	C376.171356,190.327148 370.986115,190.058777 364.894623,190.222931 
M531.807983,174.867126 
	C532.069702,171.604599 533.182129,167.629532 528.101013,167.339371 
	C520.933411,166.930038 516.191833,171.355835 515.085083,178.851761 
	C513.827271,187.370941 515.935059,191.001984 523.619507,193.398697 
	C529.729553,195.304382 535.860107,197.144485 541.631775,198.906891 
	C542.772217,203.307632 539.779358,203.855942 537.363525,204.872940 
	C533.214050,206.619705 535.003906,210.516876 534.233765,213.487076 
	C536.167480,213.967941 538.133972,214.955917 540.028625,214.833328 
	C545.418396,214.484573 549.337341,211.161285 552.191101,206.986664 
	C556.217590,201.096512 552.657715,192.020340 545.802979,189.818649 
	C540.451782,188.099899 534.994812,186.670258 529.754944,184.667221 
	C527.974182,183.986496 526.712524,181.948013 525.213623,180.529938 
	C526.521973,179.472351 527.820007,178.401611 529.142578,177.362137 
	C529.916626,176.753830 530.729797,176.195465 531.807983,174.867126 
M521.598572,212.614319 
	C522.035889,212.845871 522.470459,213.082947 522.911072,213.308060 
	C525.880127,214.825165 529.328186,217.002411 531.338562,212.675583 
	C532.897400,209.320404 533.051514,205.515381 527.847534,204.267151 
	C526.810547,204.018433 525.841064,202.595428 525.260254,201.492783 
	C522.789612,196.802139 519.014771,196.247559 514.493286,197.590378 
	C513.308716,206.341599 514.744751,209.673218 521.598572,212.614319 
M540.456543,168.065750 
	C538.448425,168.475311 534.714172,168.862274 534.708435,169.298080 
	C534.666992,172.464386 533.202759,176.248520 537.437805,178.346420 
	C538.867188,179.054489 540.063660,180.631897 540.889160,182.083481 
	C543.199951,186.146759 546.848572,185.450470 549.968445,184.214615 
	C551.150513,183.746353 552.014587,180.538208 551.767578,178.752686 
	C550.938843,172.762650 545.587097,170.823822 540.456543,168.065750 
M470.916229,210.931900 
	C470.925079,208.122940 471.003601,205.311981 470.923401,202.505554 
	C470.841553,199.641159 469.661499,197.805099 466.390930,198.000580 
	C464.328613,198.123840 462.252991,198.023575 459.560059,198.023575 
	C460.078186,202.284012 460.333649,205.874603 461.014648,209.382614 
	C461.378601,211.257263 462.763672,214.599304 463.196259,214.522156 
	C465.818329,214.054581 468.298676,212.792099 470.916229,210.931900 
M169.529373,166.959351 
	C161.855026,167.402161 168.457916,173.721497 165.430023,176.752792 
	C169.360703,177.374695 173.018082,177.489548 176.459808,176.683502 
	C177.321121,176.481796 177.887177,173.320435 177.900162,171.514359 
	C177.938980,166.113129 173.847351,166.995865 169.529373,166.959351 
z"/>
<path fill="#F9721A" opacity="1.000000" stroke="none" 
	d="
M137.792267,127.948425 
	C149.383163,134.227890 154.924301,145.569794 151.331375,159.341019 
	C147.948318,172.307800 141.158310,183.396927 132.797867,193.522171 
	C128.302078,198.966980 123.728500,198.928940 119.326210,193.597443 
	C115.652573,189.148407 112.657944,184.009506 110.073250,178.822037 
	C106.563019,171.777023 103.108704,164.591293 100.741241,157.114182 
	C96.353233,143.255676 108.925545,123.663330 124.416260,125.987610 
	C128.742477,126.636742 133.075287,127.241867 137.792267,127.948425 
M132.971893,143.482498 
	C130.305923,142.653488 127.642113,141.147293 124.973526,141.138809 
	C119.692223,141.121979 114.683899,145.119156 114.964371,151.280823 
	C115.218224,156.857574 120.382523,163.146118 124.738739,162.965897 
	C131.480133,162.686981 136.180389,158.429077 135.898605,152.190369 
	C135.774963,149.452637 134.357025,146.773376 132.971893,143.482498 
z"/>
<path fill="#FA7218" opacity="1.000000" stroke="none" 
	d="
M113.761726,220.023590 
	C112.924210,214.487793 116.160690,212.722153 120.891342,211.964630 
	C125.852623,211.170197 130.716110,209.601624 135.694763,209.119629 
	C142.238495,208.486099 148.313065,210.779053 153.800293,214.154739 
	C155.065323,214.932968 155.458755,217.403427 155.906845,219.182434 
	C157.243484,224.489059 158.408035,229.839066 159.555313,235.765305 
	C159.279175,238.022690 159.087540,239.686874 158.866943,241.602524 
	C156.198929,241.029388 153.787216,240.476883 151.361130,239.996979 
	C145.466049,238.830902 140.666153,236.674438 141.052536,229.364273 
	C141.092178,228.614258 140.322189,227.821457 139.927887,227.048508 
	C138.570068,229.160278 138.598221,231.335022 137.833038,233.180923 
	C137.096542,234.957611 135.850876,237.301117 134.293579,237.835526 
	C122.750038,241.796890 111.104385,244.483398 98.933090,239.844604 
	C95.408623,238.501328 92.629768,237.192337 92.172073,233.126358 
	C94.119171,225.896255 96.043793,218.659927 98.042679,211.444168 
	C98.284317,210.571915 98.927216,209.810806 99.329124,209.096039 
	C102.474503,210.401031 105.381508,211.607117 108.702110,213.376755 
	C110.237724,218.848251 111.359741,223.756195 112.481766,228.664154 
	C112.908424,228.638626 113.335075,228.613098 113.761726,228.587555 
	C113.761726,225.732910 113.761726,222.878250 113.761726,220.023590 
z"/>
<path fill="#3B3F47" opacity="1.000000" stroke="none" 
	d="
M215.016510,202.944580 
	C215.016312,201.962921 215.016205,201.463638 215.015991,200.964371 
	C215.011169,189.507416 215.013336,189.550034 226.592865,188.958374 
	C230.719162,188.747559 234.899445,188.601212 238.920029,187.771179 
	C240.688217,187.406143 242.691391,185.683624 243.486740,184.043488 
	C243.959396,183.068741 242.696335,180.413681 241.492798,179.649643 
	C239.373337,178.304169 236.743301,177.294708 234.252686,177.101074 
	C229.289551,176.715210 224.275314,176.924667 219.283630,176.993240 
	C216.536896,177.030960 214.820557,176.294174 214.873306,173.087250 
	C214.920563,170.214264 215.210281,167.242981 218.648819,167.163559 
	C226.107803,166.991302 233.625580,166.898666 241.031586,167.644516 
	C247.458206,168.291733 252.579437,171.400986 254.032455,178.596466 
	C255.509766,185.912262 253.843262,191.940536 246.964508,196.849686 
	C249.132477,200.170502 251.545044,203.423553 253.451523,206.950180 
	C254.617294,209.106628 257.808258,211.442276 254.295792,214.205292 
	C251.949631,216.050888 246.129333,215.185669 244.360687,212.625580 
	C241.915543,209.086182 239.534866,205.477570 237.455322,201.716812 
	C235.129578,197.510849 231.317535,198.930984 228.172394,199.402008 
	C227.190552,199.549057 226.471344,202.980682 226.067688,204.996033 
	C225.714783,206.758133 226.644501,209.079834 225.803864,210.370026 
	C224.569229,212.264877 222.421127,214.271027 220.357895,214.674866 
	C218.947311,214.950943 216.146683,212.914124 215.527435,211.309387 
	C214.622864,208.965271 215.118011,206.081009 215.016510,202.944580 
z"/>
<path fill="#3B3F46" opacity="1.000000" stroke="none" 
	d="
M323.199554,184.944672 
	C318.971710,180.387482 314.829590,176.053848 311.422028,171.204102 
	C310.095642,169.316330 311.418274,167.349380 314.430817,166.955246 
	C321.061066,166.087784 324.244385,170.566925 327.635590,174.837921 
	C329.132538,176.723221 330.472046,178.733551 332.287659,181.247391 
	C335.281403,177.440933 337.963959,173.968475 340.724121,170.558853 
	C341.532379,169.560410 342.504913,168.049683 343.499542,167.968613 
	C346.454407,167.727753 349.457733,168.081757 352.442139,168.203247 
	C351.688599,170.544556 351.370239,173.163773 350.089905,175.168655 
	C347.516144,179.199005 344.047394,182.685120 341.708496,186.825439 
	C340.696472,188.616913 340.726257,191.955566 341.753052,193.750320 
	C344.271301,198.151978 347.772369,201.978287 350.622620,206.208176 
	C352.211884,208.566757 355.960663,210.703140 352.896912,214.225464 
	C351.128021,216.259140 344.077301,214.941956 342.044647,212.423935 
	C338.834900,208.447769 335.730072,204.386902 332.155060,199.817673 
	C329.233368,203.497116 326.886932,207.342804 323.671143,210.215271 
	C321.176178,212.443863 317.731842,214.236343 314.462097,214.808395 
	C310.590698,215.485687 308.989990,212.483490 311.302155,209.214401 
	C316.147125,202.364319 321.346191,195.765106 326.369751,189.040390 
	C327.228119,187.891357 327.936920,186.630615 329.010498,184.961914 
	C326.795319,184.961914 325.187103,184.961914 323.199554,184.944672 
z"/>
<path fill="#3B4048" opacity="1.000000" stroke="none" 
	d="
M365.360413,190.153549 
	C370.986115,190.058777 376.171356,190.327148 381.295349,189.885513 
	C383.903748,189.660706 386.568268,188.449203 388.885223,187.121490 
	C390.186005,186.376068 391.926056,183.904877 391.563110,183.218262 
	C390.497314,181.201996 388.657684,178.476501 386.799744,178.201706 
	C380.607544,177.285904 374.275574,177.305756 367.995514,177.000381 
	C366.532501,176.929245 365.063080,176.989883 363.564667,176.989883 
	C364.911743,167.009293 364.913727,166.887909 374.999054,167.052460 
	C380.435547,167.141159 385.899384,167.460556 391.285187,168.172699 
	C395.968811,168.791992 398.948639,171.616714 400.753265,176.257156 
	C405.541534,188.569611 398.902344,199.324783 385.783020,199.968246 
	C382.157654,200.146057 377.567566,199.127243 375.217712,200.960999 
	C373.356018,202.413803 374.193634,207.384399 373.922241,210.800079 
	C373.637634,214.381775 371.268097,214.917358 368.322540,214.988556 
	C365.051941,215.067627 363.841553,213.499878 363.996521,210.399979 
	C364.332611,203.676132 364.599457,196.948822 365.360413,190.153549 
z"/>
<path fill="#3E424A" opacity="1.000000" stroke="none" 
	d="
M492.015717,167.688568 
	C494.911743,167.834290 497.807770,167.980011 500.879395,168.960236 
	C501.038849,184.158813 501.022705,198.522903 501.006561,212.886978 
	C497.139465,216.099243 491.382812,215.428680 488.512695,211.336014 
	C481.219360,200.936020 474.006836,190.479172 466.671844,180.108810 
	C465.659515,178.677521 463.403168,177.804031 463.007660,176.327972 
	C462.263916,173.552383 461.610291,170.215881 462.529083,167.700699 
	C463.270203,165.671875 470.192566,167.211365 472.298187,169.759048 
	C474.494080,172.415909 476.563995,175.184189 478.571289,177.988022 
	C482.297485,183.192841 485.938110,188.458893 490.113800,194.213379 
	C491.051758,193.422760 491.845245,192.125046 491.870453,190.812607 
	C492.018280,183.106491 491.986755,175.396957 492.015717,167.688568 
z"/>
<path fill="#3B4048" opacity="1.000000" stroke="none" 
	d="
M531.666687,175.240875 
	C530.729797,176.195465 529.916626,176.753830 529.142578,177.362137 
	C527.820007,178.401611 526.521973,179.472351 525.213623,180.529938 
	C526.712524,181.948013 527.974182,183.986496 529.754944,184.667221 
	C534.994812,186.670258 540.451782,188.099899 545.802979,189.818649 
	C552.657715,192.020340 556.217590,201.096512 552.191101,206.986664 
	C549.337341,211.161285 545.418396,214.484573 540.028625,214.833328 
	C538.133972,214.955917 536.167480,213.967941 534.233765,213.487076 
	C535.003906,210.516876 533.214050,206.619705 537.363525,204.872940 
	C539.779358,203.855942 542.772217,203.307632 541.631775,198.906891 
	C535.860107,197.144485 529.729553,195.304382 523.619507,193.398697 
	C515.935059,191.001984 513.827271,187.370941 515.085083,178.851761 
	C516.191833,171.355835 520.933411,166.930038 528.101013,167.339371 
	C533.182129,167.629532 532.069702,171.604599 531.666687,175.240875 
z"/>
<path fill="#3B4048" opacity="1.000000" stroke="none" 
	d="
M180.035187,175.041641 
	C179.857758,167.174942 180.040253,166.977051 187.522156,166.979065 
	C191.516403,166.980148 195.511276,167.033112 199.504715,166.978424 
	C203.812119,166.919449 205.877670,168.928864 206.026886,173.280182 
	C206.183762,177.854584 202.898148,177.753372 199.961060,177.942947 
	C191.296524,178.502274 191.261719,178.445175 191.147644,187.136673 
	C191.055969,194.122482 191.080536,201.109741 191.000015,208.095749 
	C190.926041,214.513992 190.196625,215.166687 183.094482,214.657104 
	C181.973312,214.254913 181.444199,214.142914 180.915070,214.030930 
	C180.915070,214.030930 180.980530,214.019958 181.056885,213.584198 
	C181.094543,202.163467 181.097382,191.178024 180.974091,180.194016 
	C180.954788,178.473251 180.362518,176.758942 180.035187,175.041641 
z"/>
<path fill="#3B3F47" opacity="1.000000" stroke="none" 
	d="
M268.749146,176.995514 
	C268.040619,175.869263 266.802124,174.771454 266.739838,173.610535 
	C266.628540,171.535797 267.226593,169.422989 267.568726,167.043472 
	C277.588379,167.043472 287.660461,166.849854 297.720551,167.113632 
	C304.100677,167.280930 305.707764,171.335052 301.158081,176.993927 
	C289.782806,176.983063 279.265961,176.989288 268.749146,176.995514 
z"/>
<path fill="#3B3F46" opacity="1.000000" stroke="none" 
	d="
M414.929352,176.999359 
	C409.828644,176.047440 414.109222,172.480911 413.267822,170.275421 
	C413.046539,169.695389 415.399048,167.190033 416.614258,167.155807 
	C425.721466,166.899353 434.842255,166.925201 443.953522,167.115784 
	C447.490540,167.189758 449.243134,169.316345 449.013062,173.031219 
	C448.884064,175.114212 449.779327,177.665466 445.195618,177.072876 
	C434.502869,177.019440 424.716095,177.009399 414.929352,176.999359 
z"/>
<path fill="#3B3F47" opacity="1.000000" stroke="none" 
	d="
M413.795593,213.983444 
	C413.408356,211.339111 413.021088,208.694778 412.467804,204.916672 
	C418.218170,204.569290 423.198395,204.151505 428.186707,204.000641 
	C432.972565,203.855911 437.769806,203.884079 442.556610,204.023743 
	C449.049347,204.213150 450.774536,207.609406 446.820374,213.913483 
	C435.249481,214.003860 424.522552,213.993652 413.795593,213.983444 
z"/>
<path fill="#3B3F47" opacity="1.000000" stroke="none" 
	d="
M266.994812,211.991440 
	C267.070892,204.796997 267.763367,203.940384 274.868835,204.011459 
	C282.756378,204.090363 290.692505,204.023315 298.509186,204.897964 
	C304.148865,205.528992 304.973816,208.112869 301.839508,213.744354 
	C290.012573,213.968979 278.935303,213.997025 267.858032,214.025055 
	C267.858032,214.025055 267.972595,214.046127 268.089783,213.795074 
	C267.802887,213.026489 267.398865,212.508957 266.994812,211.991440 
z"/>
<path fill="#3B3F46" opacity="1.000000" stroke="none" 
	d="
M567.047058,177.003815 
	C563.042603,175.248734 565.449951,171.863297 565.461243,169.311340 
	C565.464661,168.536407 568.423828,167.161743 570.061646,167.111176 
	C577.829041,166.871338 585.607544,166.986862 593.382141,166.990311 
	C600.385498,166.993408 602.183838,170.281357 597.933655,176.956543 
	C587.053833,177.018539 577.050476,177.011185 567.047058,177.003815 
z"/>
<path fill="#3B3F46" opacity="1.000000" stroke="none" 
	d="
M566.042358,214.004440 
	C565.586853,211.349243 565.131287,208.694031 564.495117,204.985687 
	C575.816284,204.689819 586.346680,203.766342 596.776489,204.428375 
	C601.647827,204.737564 599.965942,209.969193 598.755737,213.747009 
	C587.343079,214.013306 576.692749,214.008881 566.042358,214.004440 
z"/>
<path fill="#3B3F46" opacity="1.000000" stroke="none" 
	d="
M443.963074,185.994980 
	C447.591766,189.237534 447.719788,189.868469 445.732574,196.003143 
	C436.992340,196.003143 428.088928,196.005188 419.185516,196.002441 
	C412.887939,196.000504 412.829132,195.947937 413.038147,189.579498 
	C413.070496,188.593994 413.263855,187.613754 414.103668,186.375092 
	C424.537445,186.077728 434.250244,186.036346 443.963074,185.994980 
z"/>
<path fill="#3B3F47" opacity="1.000000" stroke="none" 
	d="
M298.888062,185.889343 
	C299.404755,188.500656 300.784912,191.371811 300.107269,193.623703 
	C299.714417,194.929016 296.034546,195.799118 293.793793,195.891373 
	C286.821686,196.178436 279.830292,196.027313 272.846619,195.995728 
	C265.873047,195.964188 264.660095,193.895508 268.142792,186.635315 
	C278.840485,186.176376 288.864258,186.032867 298.888062,185.889343 
z"/>
<path fill="#3B3F46" opacity="1.000000" stroke="none" 
	d="
M596.016724,186.000412 
	C596.575012,188.770493 597.718994,191.621155 597.355347,194.264374 
	C597.237305,195.121948 593.187439,195.837128 590.910095,195.921951 
	C584.783997,196.150101 578.643860,196.005737 572.509338,196.004288 
	C564.276489,196.002350 563.726013,195.239349 566.383362,186.304504 
	C576.686462,185.969513 586.351562,185.984955 596.016724,186.000412 
z"/>
<path fill="#40444B" opacity="1.000000" stroke="none" 
	d="
M521.270630,212.714569 
	C514.744751,209.673218 513.308716,206.341599 514.493286,197.590378 
	C519.014771,196.247559 522.789612,196.802139 525.260254,201.492783 
	C525.841064,202.595428 526.810547,204.018433 527.847534,204.267151 
	C533.051514,205.515381 532.897400,209.320404 531.338562,212.675583 
	C529.328186,217.002411 525.880127,214.825165 522.911072,213.308060 
	C522.470459,213.082947 522.035889,212.845871 521.270630,212.714569 
z"/>
<path fill="#3E424A" opacity="1.000000" stroke="none" 
	d="
M540.834839,168.078400 
	C545.587097,170.823822 550.938843,172.762650 551.767578,178.752686 
	C552.014587,180.538208 551.150513,183.746353 549.968445,184.214615 
	C546.848572,185.450470 543.199951,186.146759 540.889160,182.083481 
	C540.063660,180.631897 538.867188,179.054489 537.437805,178.346420 
	C533.202759,176.248520 534.666992,172.464386 534.708435,169.298080 
	C534.714172,168.862274 538.448425,168.475311 540.834839,168.078400 
z"/>
<path fill="#E78749" opacity="1.000000" stroke="none" 
	d="
M92.087204,233.504272 
	C92.629768,237.192337 95.408623,238.501328 98.933090,239.844604 
	C111.104385,244.483398 122.750038,241.796890 134.293579,237.835526 
	C135.850876,237.301117 137.096542,234.957611 137.833038,233.180923 
	C138.598221,231.335022 138.570068,229.160278 139.927887,227.048508 
	C140.322189,227.821457 141.092178,228.614258 141.052536,229.364273 
	C140.666153,236.674438 145.466049,238.830902 151.361130,239.996979 
	C153.787216,240.476883 156.198929,241.029388 158.866943,241.602524 
	C159.087540,239.686874 159.279175,238.022690 159.654572,236.133209 
	C160.318375,238.052658 160.798401,240.197372 161.557510,243.588989 
	C154.246094,242.207428 147.856567,241.348572 141.735306,239.567657 
	C140.412247,239.182709 140.054550,235.479599 139.025421,232.690262 
	C141.074463,242.696609 132.770355,240.033051 128.398102,241.649338 
	C116.528084,246.037308 104.711517,243.442352 93.117691,239.901733 
	C89.497414,238.796143 91.069878,236.141785 92.087204,233.504272 
z"/>
<path fill="#3B3F47" opacity="1.000000" stroke="none" 
	d="
M470.871277,211.363556 
	C468.298676,212.792099 465.818329,214.054581 463.196259,214.522156 
	C462.763672,214.599304 461.378601,211.257263 461.014648,209.382614 
	C460.333649,205.874603 460.078186,202.284012 459.560059,198.023575 
	C462.252991,198.023575 464.328613,198.123840 466.390930,198.000580 
	C469.661499,197.805099 470.841553,199.641159 470.923401,202.505554 
	C471.003601,205.311981 470.925079,208.122940 470.871277,211.363556 
z"/>
<path fill="#40444B" opacity="1.000000" stroke="none" 
	d="
M169.982956,166.965256 
	C173.847351,166.995865 177.938980,166.113129 177.900162,171.514359 
	C177.887177,173.320435 177.321121,176.481796 176.459808,176.683502 
	C173.018082,177.489548 169.360703,177.374695 165.430023,176.752792 
	C168.457916,173.721497 161.855026,167.402161 169.982956,166.965256 
z"/>
<path fill="#E78749" opacity="1.000000" stroke="none" 
	d="
M113.479858,219.802292 
	C113.761726,222.878250 113.761726,225.732910 113.761726,228.587555 
	C113.335075,228.613098 112.908424,228.638626 112.481766,228.664154 
	C111.359741,223.756195 110.237724,218.848251 109.029327,213.558014 
	C113.540497,213.198868 111.679192,217.512634 113.479858,219.802292 
z"/>
<path fill="#969696" opacity="1.000000" stroke="none" 
	d="
M501.384399,212.686981 
	C501.022705,198.522903 501.038849,184.158813 501.025269,169.315857 
	C501.313965,169.533890 501.910065,170.230942 501.909668,170.927673 
	C501.901886,184.780792 501.825073,198.633881 501.384399,212.686981 
z"/>
<path fill="#969696" opacity="1.000000" stroke="none" 
	d="
M180.019638,175.507462 
	C180.362518,176.758942 180.954788,178.473251 180.974091,180.194016 
	C181.097382,191.178024 181.094543,202.163467 181.056000,213.617371 
	C180.650452,212.581894 180.047974,211.079391 180.037598,209.572784 
	C179.960373,198.373413 180.000671,187.173218 180.019638,175.507462 
z"/>
<path fill="#CBD2D3" opacity="1.000000" stroke="none" 
	d="
M268.048767,214.431610 
	C278.935303,213.997025 290.012573,213.968979 301.559692,213.967438 
	C301.406860,214.334442 300.784210,214.971207 300.161438,214.971344 
	C289.520782,214.973694 278.880127,214.897263 268.048767,214.431610 
z"/>
<path fill="#CBD2D3" opacity="1.000000" stroke="none" 
	d="
M414.031372,214.364777 
	C424.522552,213.993652 435.249481,214.003860 446.438812,214.013931 
	C446.425476,214.338745 445.949097,214.948029 445.474182,214.946854 
	C435.071747,214.920776 424.669464,214.826950 414.031372,214.364777 
z"/>
<path fill="#CBD2D3" opacity="1.000000" stroke="none" 
	d="
M566.207764,214.410950 
	C576.692749,214.008881 587.343079,214.013306 598.457092,214.014130 
	C598.283203,214.337234 597.645813,214.948074 597.008240,214.948227 
	C586.796570,214.950699 576.584900,214.875214 566.207764,214.410950 
z"/>
<path fill="#969696" opacity="1.000000" stroke="none" 
	d="
M269.002472,177.365967 
	C279.265961,176.989288 289.782806,176.983063 300.786102,176.987823 
	C300.077667,177.332199 298.882599,177.953934 297.687866,177.953232 
	C288.210449,177.947754 278.733154,177.823914 269.002472,177.365967 
z"/>
<path fill="#969696" opacity="1.000000" stroke="none" 
	d="
M567.251953,177.384933 
	C577.050476,177.011185 587.053833,177.018539 597.525330,177.013702 
	C596.829590,177.334381 595.665833,177.954010 594.501892,177.954590 
	C585.486877,177.959122 576.471863,177.844070 567.251953,177.384933 
z"/>
<path fill="#9C9DA2" opacity="1.000000" stroke="none" 
	d="
M298.672668,185.524048 
	C288.864258,186.032867 278.840485,186.176376 268.345001,186.408081 
	C268.864136,185.997681 269.852173,185.073334 270.846161,185.066895 
	C280.049255,185.007278 289.253418,185.106003 298.672668,185.524048 
z"/>
<path fill="#969696" opacity="1.000000" stroke="none" 
	d="
M415.154724,177.376053 
	C424.716095,177.009399 434.502869,177.019440 444.776306,177.018936 
	C443.404236,177.339203 441.546387,177.946503 439.686432,177.953049 
	C431.584656,177.981628 423.482269,177.835449 415.154724,177.376053 
z"/>
<path fill="#9C9DA2" opacity="1.000000" stroke="none" 
	d="
M595.810181,185.614777 
	C586.351562,185.984955 576.686462,185.969513 566.559814,185.924316 
	C569.115112,185.598343 572.129700,185.081085 575.149170,185.050812 
	C581.966064,184.982422 588.785400,185.154724 595.810181,185.614777 
z"/>
<path fill="#9C9DA2" opacity="1.000000" stroke="none" 
	d="
M443.768402,185.606201 
	C434.250244,186.036346 424.537445,186.077728 414.351318,186.057816 
	C415.032501,185.664841 416.186584,185.048264 417.341492,185.046814 
	C426.085480,185.035828 434.829620,185.145447 443.768402,185.606201 
z"/>
<path fill="#CBD2D3" opacity="1.000000" stroke="none" 
	d="
M491.661652,167.967194 
	C491.986755,175.396957 492.018280,183.106491 491.870453,190.812607 
	C491.845245,192.125046 491.051758,193.422760 490.391541,194.425415 
	C490.455017,189.618088 490.804962,185.115540 491.006439,180.606354 
	C491.190369,176.489899 491.213562,172.366272 491.661652,167.967194 
z"/>
<path fill="#CBD2D3" opacity="1.000000" stroke="none" 
	d="
M266.773834,212.115509 
	C267.398865,212.508957 267.802887,213.026489 268.078857,213.852280 
	C267.484772,213.520233 267.018829,212.879913 266.773834,212.115509 
z"/>
<path fill="#969696" opacity="1.000000" stroke="none" 
	d="
M181.050110,214.284943 
	C181.444199,214.142914 181.973312,214.254913 182.660400,214.605896 
	C182.273956,214.742920 181.729553,214.640945 181.050110,214.284943 
z"/>
<path fill="#000000" opacity="1.000000" stroke="none" 
	d="
M133.249329,143.775024 
	C134.357025,146.773376 135.774963,149.452637 135.898605,152.190369 
	C136.180389,158.429077 131.480133,162.686981 124.738739,162.965897 
	C120.382523,163.146118 115.218224,156.857574 114.964371,151.280823 
	C114.683899,145.119156 119.692223,141.121979 124.973526,141.138809 
	C127.642113,141.147293 130.305923,142.653488 133.249329,143.775024 
z"/>
</svg>